<?xml version="1.0" encoding="UTF-8"?>
<svg xmlns="http://www.w3.org/2000/svg" xmlns:xlink="http://www.w3.org/1999/xlink" width="48px" height="48px" viewBox="0 0 48 48" version="1.1">
<g id="surface1">
<path style=" stroke:none;fill-rule:evenodd;fill:rgb(26.274511%,60.000002%,20.392157%);fill-opacity:1;" d="M 33.015625 16.054688 C 33.617188 17.796875 34.050781 19.574219 34.191406 21.414062 C 34.367188 23.699219 34.289062 25.96875 33.804688 28.21875 C 33.792969 28.28125 33.765625 28.339844 33.746094 28.398438 C 33.59375 28.398438 33.441406 28.378906 33.292969 28.402344 C 32.042969 28.597656 30.796875 28.800781 29.550781 29.003906 C 28.257812 29.214844 26.96875 29.414062 25.679688 29.636719 C 25.226562 29.714844 24.660156 29.621094 24.476562 30.253906 C 24.472656 30.269531 24.417969 30.273438 24.390625 30.28125 L 24.449219 26.511719 L 24.386719 17.417969 L 24.988281 17.316406 C 25.972656 17.15625 26.953125 16.992188 27.9375 16.835938 C 29.109375 16.648438 30.285156 16.46875 31.457031 16.285156 C 31.976562 16.207031 32.496094 16.132812 33.015625 16.054688 Z M 33.015625 16.054688 "/>
<path style=" stroke:none;fill-rule:evenodd;fill:rgb(27.058825%,64.705884%,21.960784%);fill-opacity:1;" d="M 23.148438 41.269531 C 22.515625 40.726562 21.859375 40.203125 21.25 39.632812 C 17.980469 36.546875 15.589844 32.917969 14.414062 28.542969 C 14.089844 27.339844 13.875 26.117188 13.804688 24.871094 C 13.753906 24 13.683594 23.121094 13.746094 22.257812 C 13.910156 19.953125 14.242188 17.671875 14.917969 15.453125 L 14.957031 15.398438 C 15.019531 15.488281 15.117188 15.5625 15.148438 15.664062 C 15.808594 17.605469 16.464844 19.550781 17.113281 21.496094 C 19.160156 27.605469 21.207031 33.722656 23.257812 39.832031 C 23.296875 39.953125 23.398438 40.050781 23.476562 40.15625 Z M 23.148438 41.269531 "/>
<path style=" stroke:none;fill-rule:evenodd;fill:rgb(27.450982%,62.7451%,21.568628%);fill-opacity:1;" d="M 33.015625 16.054688 C 32.496094 16.132812 31.976562 16.207031 31.457031 16.285156 C 30.285156 16.46875 29.109375 16.648438 27.9375 16.835938 C 26.953125 16.992188 25.96875 17.15625 24.988281 17.316406 L 24.386719 17.417969 L 24.382812 17.027344 C 24.363281 16.703125 24.328125 16.382812 24.324219 16.058594 C 24.300781 14.007812 24.28125 11.953125 24.257812 9.898438 C 24.242188 8.613281 24.21875 7.328125 24.191406 6.039062 C 24.175781 5.242188 24.160156 4.441406 24.121094 3.644531 C 24.101562 3.214844 24.035156 2.789062 24.007812 2.363281 C 23.992188 2.117188 24.011719 1.867188 24.015625 1.621094 C 24.324219 2.214844 24.621094 2.8125 24.9375 3.402344 C 25.433594 4.332031 26.226562 5.019531 26.941406 5.765625 C 29.761719 8.726562 31.765625 12.167969 33.015625 16.054688 Z M 33.015625 16.054688 "/>
<path style=" stroke:none;fill-rule:evenodd;fill:rgb(25.098041%,58.039218%,20%);fill-opacity:1;" d="M 24.386719 30.28125 C 24.417969 30.273438 24.472656 30.269531 24.476562 30.253906 C 24.660156 29.621094 25.226562 29.714844 25.679688 29.636719 C 26.96875 29.414062 28.257812 29.214844 29.546875 29.003906 C 30.796875 28.800781 32.042969 28.597656 33.292969 28.402344 C 33.4375 28.378906 33.59375 28.398438 33.746094 28.398438 C 33.511719 29.230469 33.328125 30.082031 33.03125 30.890625 C 32.695312 31.808594 32.289062 32.707031 31.855469 33.585938 C 31.210938 34.894531 30.410156 36.125 29.476562 37.246094 C 28.753906 38.109375 27.953125 38.910156 27.148438 39.699219 C 26.703125 40.136719 26.179688 40.492188 25.695312 40.886719 L 25.566406 40.800781 L 25.113281 40.410156 L 24.640625 39.378906 C 24.320312 38.175781 24.144531 36.933594 24.117188 35.6875 L 24.125 35.480469 L 24.191406 34.570312 C 24.210938 34.257812 24.242188 33.949219 24.253906 33.636719 C 24.300781 32.519531 24.34375 31.402344 24.386719 30.28125 Z M 24.386719 30.28125 "/>
<path style=" stroke:none;fill-rule:evenodd;fill:rgb(30.980393%,66.666669%,25.490198%);fill-opacity:1;" d="M 24.386719 30.28125 C 24.34375 31.402344 24.300781 32.519531 24.253906 33.636719 C 24.242188 33.949219 24.214844 34.257812 24.191406 34.570312 L 23.90625 34.679688 C 23.269531 32.800781 22.628906 30.945312 22.007812 29.085938 C 20.976562 26.007812 19.957031 22.921875 18.925781 19.84375 C 18.09375 17.359375 17.257812 14.875 16.414062 12.394531 C 16.375 12.277344 16.261719 12.1875 16.183594 12.085938 L 18.019531 8.710938 C 18.082031 8.820312 18.164062 8.921875 18.203125 9.039062 C 19.054688 11.550781 19.902344 14.066406 20.742188 16.582031 C 21.835938 19.855469 22.921875 23.132812 24.015625 26.40625 C 24.058594 26.539062 24.132812 26.660156 24.199219 26.804688 L 24.449219 26.511719 Z M 24.386719 30.28125 "/>
<path style=" stroke:none;fill-rule:evenodd;fill:rgb(29.019609%,65.490198%,23.529412%);fill-opacity:1;" d="M 16.183594 12.085938 C 16.261719 12.1875 16.375 12.277344 16.414062 12.394531 C 17.257812 14.875 18.09375 17.359375 18.925781 19.84375 C 19.957031 22.925781 20.976562 26.007812 22.007812 29.085938 C 22.628906 30.945312 23.269531 32.800781 23.90625 34.679688 L 24.191406 34.570312 L 24.128906 35.480469 L 24.070312 35.6875 C 23.96875 36.683594 23.886719 37.683594 23.765625 38.675781 C 23.703125 39.175781 23.574219 39.664062 23.476562 40.15625 C 23.402344 40.050781 23.296875 39.953125 23.257812 39.832031 C 21.207031 33.722656 19.164062 27.609375 17.117188 21.496094 C 16.464844 19.550781 15.808594 17.605469 15.148438 15.664062 C 15.117188 15.566406 15.023438 15.488281 14.957031 15.398438 Z M 16.183594 12.085938 "/>
<path style=" stroke:none;fill-rule:evenodd;fill:rgb(34.117648%,68.235296%,27.843139%);fill-opacity:1;" d="M 24.449219 26.511719 L 24.199219 26.804688 C 24.132812 26.660156 24.058594 26.539062 24.015625 26.40625 C 22.921875 23.132812 21.835938 19.855469 20.742188 16.582031 C 19.902344 14.066406 19.054688 11.550781 18.203125 9.039062 C 18.164062 8.921875 18.082031 8.820312 18.019531 8.710938 L 20.289062 5.722656 C 20.359375 5.816406 20.460938 5.902344 20.5 6.011719 C 21.128906 7.855469 21.753906 9.703125 22.375 11.550781 C 22.957031 13.277344 23.527344 15.007812 24.113281 16.734375 C 24.152344 16.847656 24.289062 16.929688 24.382812 17.027344 L 24.386719 17.417969 C 24.410156 20.449219 24.429688 23.480469 24.449219 26.511719 Z M 24.449219 26.511719 "/>
<path style=" stroke:none;fill-rule:evenodd;fill:rgb(37.64706%,69.803923%,30.980393%);fill-opacity:1;" d="M 24.382812 17.027344 C 24.292969 16.929688 24.15625 16.847656 24.113281 16.730469 C 23.527344 15.007812 22.957031 13.277344 22.375 11.550781 C 21.753906 9.703125 21.132812 7.855469 20.5 6.011719 C 20.464844 5.902344 20.363281 5.816406 20.289062 5.722656 C 21.027344 5 21.742188 4.25 22.511719 3.558594 C 23.195312 2.949219 23.742188 2.289062 23.769531 1.320312 C 23.769531 1.28125 23.789062 1.242188 23.824219 1.128906 L 24.019531 1.621094 C 24.011719 1.867188 23.992188 2.113281 24.007812 2.363281 C 24.035156 2.789062 24.105469 3.214844 24.125 3.644531 C 24.160156 4.441406 24.175781 5.242188 24.191406 6.039062 C 24.21875 7.324219 24.242188 8.613281 24.257812 9.898438 C 24.285156 11.953125 24.300781 14.007812 24.324219 16.058594 C 24.328125 16.382812 24.363281 16.703125 24.382812 17.027344 Z M 24.382812 17.027344 "/>
<path style=" stroke:none;fill-rule:evenodd;fill:rgb(66.274512%,66.666669%,53.333336%);fill-opacity:1;" d="M 23.472656 40.15625 C 23.574219 39.664062 23.703125 39.175781 23.765625 38.675781 C 23.886719 37.683594 23.96875 36.683594 24.070312 35.6875 L 24.09375 35.683594 L 24.117188 35.6875 C 24.144531 36.933594 24.320312 38.175781 24.640625 39.378906 C 24.574219 39.464844 24.480469 39.542969 24.445312 39.640625 C 24.175781 40.410156 23.917969 41.183594 23.644531 41.953125 C 23.605469 42.058594 23.5 42.140625 23.429688 42.234375 L 23.148438 41.269531 Z M 23.472656 40.15625 "/>
<path style=" stroke:none;fill-rule:evenodd;fill:rgb(71.372551%,70.980394%,59.607846%);fill-opacity:1;" d="M 23.429688 42.234375 C 23.503906 42.140625 23.605469 42.058594 23.644531 41.953125 C 23.917969 41.183594 24.175781 40.410156 24.449219 39.640625 C 24.480469 39.542969 24.574219 39.464844 24.640625 39.378906 L 25.113281 40.410156 C 25.019531 40.542969 24.890625 40.664062 24.839844 40.808594 L 23.9375 43.457031 C 23.902344 43.5625 23.773438 43.636719 23.6875 43.726562 Z M 23.429688 42.234375 "/>
<path style=" stroke:none;fill-rule:evenodd;fill:rgb(76.078433%,75.686276%,65.490198%);fill-opacity:1;" d="M 23.6875 43.726562 C 23.773438 43.636719 23.902344 43.5625 23.9375 43.457031 L 24.839844 40.808594 C 24.890625 40.664062 25.019531 40.542969 25.113281 40.410156 L 25.566406 40.800781 C 25.347656 41.015625 25.226562 41.269531 25.300781 41.585938 L 25.160156 42.039062 C 25.097656 42.117188 25.007812 42.183594 24.976562 42.273438 C 24.660156 43.175781 24.359375 44.082031 24.042969 44.980469 C 24.003906 45.097656 23.890625 45.1875 23.8125 45.285156 C 23.773438 44.765625 23.730469 44.246094 23.6875 43.726562 Z M 23.6875 43.726562 "/>
<path style=" stroke:none;fill-rule:evenodd;fill:rgb(80.784315%,80.392158%,71.764708%);fill-opacity:1;" d="M 23.8125 45.285156 C 23.890625 45.183594 24.003906 45.09375 24.042969 44.980469 C 24.359375 44.082031 24.660156 43.175781 24.976562 42.273438 C 25.007812 42.183594 25.097656 42.117188 25.160156 42.039062 L 24.96875 44.117188 C 24.917969 44.175781 24.84375 44.230469 24.820312 44.296875 C 24.605469 44.902344 24.402344 45.511719 24.1875 46.117188 C 24.140625 46.242188 24.054688 46.351562 23.988281 46.46875 C 23.929688 46.390625 23.824219 46.316406 23.820312 46.234375 C 23.800781 45.921875 23.8125 45.601562 23.8125 45.285156 Z M 23.8125 45.285156 "/>
<path style=" stroke:none;fill-rule:evenodd;fill:rgb(85.882354%,85.490197%,78.039217%);fill-opacity:1;" d="M 23.988281 46.46875 C 24.054688 46.351562 24.140625 46.242188 24.183594 46.117188 C 24.402344 45.511719 24.605469 44.902344 24.820312 44.296875 C 24.84375 44.230469 24.917969 44.179688 24.96875 44.117188 L 24.972656 45.484375 L 24.515625 46.65625 Z M 23.988281 46.46875 "/>
<path style=" stroke:none;fill-rule:evenodd;fill:rgb(92.156863%,91.37255%,86.274511%);fill-opacity:1;" d="M 24.515625 46.65625 L 24.972656 45.484375 L 25.070312 46.871094 Z M 24.515625 46.65625 "/>
<path style=" stroke:none;fill-rule:evenodd;fill:rgb(80.784315%,80.392158%,71.764708%);fill-opacity:1;" d="M 25.300781 41.585938 C 25.226562 41.269531 25.347656 41.015625 25.566406 40.800781 L 25.695312 40.886719 Z M 25.300781 41.585938 "/>
<path style=" stroke:none;fill-rule:evenodd;fill:rgb(30.980393%,66.666669%,25.490198%);fill-opacity:1;" d="M 24.117188 35.691406 L 24.09375 35.683594 L 24.070312 35.6875 L 24.128906 35.480469 Z M 24.117188 35.691406 "/>
</g>
</svg>
